<svg width="365" height="107" viewBox="0 0 365 107" fill="none" xmlns="http://www.w3.org/2000/svg">
<path d="M307.147 106.784C303.739 106.784 301.089 105.317 299.195 102.382C297.302 99.4472 296.355 95.1399 296.355 89.4599C296.355 84.0639 297.113 78.6679 298.627 73.2719C300.142 67.7812 302.225 62.5746 304.875 57.6519C307.526 52.7292 310.508 48.3746 313.821 44.5879C317.229 40.8012 320.779 37.8192 324.471 35.6419C328.258 33.3699 331.997 32.2339 335.689 32.2339C337.488 32.2339 339.192 32.6126 340.801 33.3699C342.411 34.0326 343.736 35.1212 344.777 36.6359C345.345 37.4879 345.913 37.9139 346.481 37.9139C347.049 37.9139 347.617 37.4879 348.185 36.6359C349.227 35.1212 350.079 34.1746 350.741 33.7959C351.404 33.3226 352.019 33.0859 352.587 33.0859C353.818 33.0859 354.291 33.7485 354.007 35.0739L341.369 89.4599C339.949 95.6132 340.896 98.6899 344.209 98.6899C346.387 98.6899 348.327 97.2226 350.031 94.2879C351.83 91.3532 353.629 86.8092 355.427 80.6559C355.711 79.6146 356.327 79.0939 357.273 79.0939C357.936 79.0939 358.362 79.3779 358.551 79.9459C358.741 80.5139 358.741 81.1766 358.551 81.9339C356.753 90.8326 354.339 97.2226 351.309 101.104C348.28 104.891 344.635 106.784 340.375 106.784C336.683 106.784 334.033 105.222 332.423 102.098C330.909 98.9739 330.767 94.7139 331.997 89.3179L333.843 81.5079C334.033 80.8452 333.891 80.4666 333.417 80.3719C333.039 80.2772 332.707 80.5139 332.423 81.0819C327.217 90.6432 322.578 97.3172 318.507 101.104C314.531 104.891 310.745 106.784 307.147 106.784ZM310.697 99.5419C312.969 99.5419 315.478 98.1692 318.223 95.4239C320.969 92.6786 323.667 89.1286 326.317 84.7739C329.063 80.4192 331.571 75.7332 333.843 70.7159C336.115 65.6986 337.914 60.8706 339.239 56.2319C340.659 51.5932 341.369 47.6646 341.369 44.4459C341.369 38.6712 339.334 35.7839 335.263 35.7839C332.802 35.7839 330.199 36.9199 327.453 39.1919C324.708 41.3692 322.057 44.3512 319.501 48.1379C317.04 51.9246 314.768 56.2319 312.685 61.0599C310.697 65.7932 309.088 70.7632 307.857 75.9699C306.627 81.0819 306.011 86.0992 306.011 91.0219C306.011 94.3352 306.39 96.6072 307.147 97.8379C307.999 98.9739 309.183 99.5419 310.697 99.5419Z" fill="white"/>
<path d="M253.814 105.506C252.489 105.506 251.968 104.891 252.252 103.66L265.742 47.0019C266.215 44.9192 266.263 43.3099 265.884 42.1739C265.6 40.9432 264.748 40.3279 263.328 40.3279C261.624 40.3279 259.731 41.6059 257.648 44.1619C255.66 46.6232 253.388 51.3566 250.832 58.3619C250.453 59.5926 249.791 60.2079 248.844 60.2079C247.424 60.2079 247.045 59.3559 247.708 57.6519C249.791 51.1199 251.968 46.0079 254.24 42.3159C256.607 38.6239 258.973 36.0206 261.34 34.5059C263.707 32.9912 265.884 32.2339 267.872 32.2339C270.996 32.2339 273.221 33.4172 274.546 35.7839C275.871 38.0559 275.919 41.8426 274.688 47.1439L273.126 53.8179C273.031 54.4806 273.173 54.8592 273.552 54.9539C273.931 55.0486 274.262 54.8119 274.546 54.2439C278.143 46.0079 281.409 40.2806 284.344 37.0619C287.279 33.8432 290.639 32.2339 294.426 32.2339C296.982 32.2339 298.875 32.9439 300.106 34.3639C301.431 35.6892 302.094 37.5352 302.094 39.9019C302.094 42.2686 301.526 44.1619 300.39 45.5819C299.254 47.0019 297.787 47.7119 295.988 47.7119C294.473 47.7119 293.385 47.3332 292.722 46.5759C292.059 45.8186 291.539 44.9666 291.16 44.0199C290.876 42.9785 290.545 42.0792 290.166 41.3219C289.787 40.5646 289.172 40.1859 288.32 40.1859C286.9 40.1859 285.054 41.9846 282.782 45.5819C280.51 49.1792 278.049 54.0546 275.398 60.2079C272.842 66.2666 270.333 73.0826 267.872 80.6559C265.505 88.2292 263.423 95.9919 261.624 103.944C261.34 104.985 260.677 105.506 259.636 105.506H253.814Z" fill="white"/>
<path d="M190.108 106.784C186.7 106.784 184.05 105.317 182.156 102.382C180.263 99.4472 179.316 95.1399 179.316 89.4599C179.316 84.0639 180.073 78.6679 181.588 73.2719C183.103 67.7812 185.185 62.5746 187.836 57.6519C190.487 52.7292 193.469 48.3746 196.782 44.5879C200.19 40.8012 203.74 37.8192 207.432 35.6419C211.219 33.3699 214.958 32.2339 218.65 32.2339C220.449 32.2339 222.153 32.6126 223.762 33.3699C225.372 34.0326 226.697 35.1212 227.738 36.6359C228.306 37.4879 228.874 37.9139 229.442 37.9139C230.01 37.9139 230.578 37.4879 231.146 36.6359C232.188 35.1212 233.04 34.1746 233.702 33.7959C234.365 33.3226 234.98 33.0859 235.548 33.0859C236.779 33.0859 237.252 33.7485 236.968 35.0739L224.33 89.4599C222.91 95.6132 223.857 98.6899 227.17 98.6899C229.347 98.6899 231.288 97.2226 232.992 94.2879C234.791 91.3532 236.59 86.8092 238.388 80.6559C238.672 79.6146 239.288 79.0939 240.234 79.0939C240.897 79.0939 241.323 79.3779 241.512 79.9459C241.702 80.5139 241.702 81.1766 241.512 81.9339C239.714 90.8326 237.3 97.2226 234.27 101.104C231.241 104.891 227.596 106.784 223.336 106.784C219.644 106.784 216.994 105.222 215.384 102.098C213.87 98.9739 213.728 94.7139 214.958 89.3179L216.804 81.5079C216.994 80.8452 216.852 80.4666 216.378 80.3719C216 80.2772 215.668 80.5139 215.384 81.0819C210.178 90.6432 205.539 97.3172 201.468 101.104C197.492 104.891 193.706 106.784 190.108 106.784ZM193.658 99.5419C195.93 99.5419 198.439 98.1692 201.184 95.4239C203.93 92.6786 206.628 89.1286 209.278 84.7739C212.024 80.4192 214.532 75.7332 216.804 70.7159C219.076 65.6986 220.875 60.8706 222.2 56.2319C223.62 51.5932 224.33 47.6646 224.33 44.4459C224.33 38.6712 222.295 35.7839 218.224 35.7839C215.763 35.7839 213.16 36.9199 210.414 39.1919C207.669 41.3692 205.018 44.3512 202.462 48.1379C200.001 51.9246 197.729 56.2319 195.646 61.0599C193.658 65.7932 192.049 70.7632 190.818 75.9699C189.588 81.0819 188.972 86.0992 188.972 91.0219C188.972 94.3352 189.351 96.6072 190.108 97.8379C190.96 98.9739 192.144 99.5419 193.658 99.5419Z" fill="white"/>
<path d="M110.945 103.66L124.435 47.0019C124.909 44.9192 124.956 43.3099 124.577 42.1739C124.293 40.9432 123.441 40.3279 122.021 40.3279C120.317 40.3279 118.424 41.6059 116.341 44.1619C114.353 46.6232 112.081 51.3566 109.525 58.3619C109.147 59.5926 108.484 60.2079 107.537 60.2079C106.117 60.2079 105.739 59.3559 106.401 57.6519C108.484 51.1199 110.661 46.0079 112.933 42.3159C115.3 38.6239 117.667 36.0206 120.033 34.5059C122.4 32.9912 124.577 32.2339 126.565 32.2339C129.689 32.2339 131.914 33.4172 133.239 35.7839C134.565 38.0559 134.612 41.8426 133.381 47.1439L129.831 62.4799C129.737 63.1426 129.879 63.5212 130.257 63.6159C130.636 63.7106 130.967 63.4739 131.251 62.9059C134.943 55.2379 138.493 49.1792 141.901 44.7299C145.309 40.1859 148.528 36.9672 151.557 35.0739C154.587 33.1805 157.332 32.2339 159.793 32.2339C163.296 32.2339 165.852 33.6539 167.461 36.4939C169.071 39.3339 169.071 43.6886 167.461 49.5579L156.669 90.7379C156.007 93.3886 155.959 95.3766 156.527 96.7019C157.095 98.0272 158.137 98.6899 159.651 98.6899C161.545 98.6899 163.391 97.4592 165.189 94.9979C167.083 92.4419 169.023 87.6612 171.011 80.6559C171.295 79.6146 171.911 79.0939 172.857 79.0939C173.615 79.0939 174.041 79.3779 174.135 79.9459C174.325 80.5139 174.325 81.1766 174.135 81.9339C172.337 88.3712 170.396 93.4359 168.313 97.1279C166.231 100.725 164.101 103.234 161.923 104.654C159.841 106.074 157.711 106.784 155.533 106.784C152.125 106.784 149.569 105.364 147.865 102.524C146.161 99.6839 146.067 95.2819 147.581 89.3179L158.515 48.1379C159.557 44.4459 159.699 41.8899 158.941 40.4699C158.279 39.0499 157.285 38.3399 155.959 38.3399C153.877 38.3399 151.51 39.6652 148.859 42.3159C146.209 44.8719 143.511 48.4219 140.765 52.9659C138.02 57.4152 135.322 62.4799 132.671 68.1599C130.021 73.8399 127.607 79.7566 125.429 85.9099C123.347 92.0632 121.643 98.0746 120.317 103.944C120.033 104.985 119.371 105.506 118.329 105.506H112.507C111.182 105.506 110.661 104.891 110.945 103.66Z" fill="white"/>
<path d="M47.64 106.784C44.1374 106.784 41.7234 105.222 40.398 102.098C39.1674 98.8792 39.262 94.6666 40.682 89.4599L51.9 48.2799C52.6574 45.5346 52.8467 43.4046 52.468 41.8899C52.0894 40.3752 51.2374 39.6179 49.912 39.6179C47.7347 39.6179 45.51 41.2746 43.238 44.5879C41.0607 47.9012 39.1674 52.4926 37.558 58.3619C37.274 59.4032 36.6587 59.9239 35.712 59.9239C34.3867 59.9239 33.9607 58.9772 34.434 57.0839C36.6114 49.1319 39.4514 43.0259 42.954 38.7659C46.5514 34.4112 50.48 32.2339 54.74 32.2339C58.148 32.2339 60.42 33.7959 61.556 36.9199C62.692 40.0439 62.5027 44.3039 60.988 49.6999L49.628 90.8799C47.8294 97.4119 48.4447 100.678 51.474 100.678C53.3674 100.678 55.5447 99.3999 58.006 96.8439C60.4674 94.2879 63.0234 90.7852 65.674 86.3359C68.4194 81.8866 71.1174 76.8219 73.768 71.1419C76.4187 65.4619 78.8327 59.4979 81.01 53.2499C83.1874 47.0019 84.986 40.8012 86.406 34.6479C86.69 33.6066 87.3527 33.0859 88.394 33.0859H94.074C95.3994 33.0859 95.92 33.7012 95.636 34.9319L82.288 92.0159C81.2467 96.4652 82.0514 98.6899 84.702 98.6899C88.678 98.6899 92.8434 92.6786 97.198 80.6559C97.5767 79.4252 98.2394 78.8099 99.186 78.8099C99.754 78.8099 100.133 79.0466 100.322 79.5199C100.606 79.9932 100.606 80.6086 100.322 81.3659C97.766 89.4126 94.7367 95.6606 91.234 100.11C87.7314 104.559 84.0394 106.784 80.158 106.784C73.342 106.784 71.07 101.814 73.342 91.8739L77.034 76.1119C77.2234 75.4492 77.0814 75.0706 76.608 74.9759C76.2294 74.8812 75.898 75.1179 75.614 75.6859C70.1234 87.0459 65.0587 95.0925 60.42 99.8259C55.7814 104.465 51.5214 106.784 47.64 106.784Z" fill="white"/>
<path d="M7.70481 106.926C4.58081 106.926 2.35615 105.79 1.03081 103.518C-0.294519 101.151 -0.341852 97.3173 0.888815 92.016L18.9228 14.626C19.3962 12.922 19.3962 11.7387 18.9228 11.076C18.5441 10.4133 17.6921 10.0347 16.3668 9.94L12.1068 9.514C10.6868 9.41933 10.0715 8.804 10.2608 7.668C10.4501 6.816 11.1128 6.29534 12.2488 6.106C15.6568 5.538 18.6861 4.87533 21.3368 4.118C23.9875 3.266 26.1175 2.17733 27.7268 0.851997C28.4841 0.283999 29.1941 0 29.8568 0C30.9928 0 31.4188 0.709999 31.1348 2.13L10.1188 92.158C9.64548 94.2407 9.55082 95.8973 9.83482 97.128C10.2135 98.264 11.1128 98.832 12.5328 98.832C14.2368 98.832 16.0828 97.6013 18.0708 95.14C20.1535 92.584 22.4728 87.8033 25.0288 80.798C25.4075 79.5673 26.0701 78.952 27.0168 78.952C28.4368 78.952 28.8155 79.804 28.1528 81.508C26.1648 87.9453 23.9402 93.0573 21.4788 96.844C19.1122 100.536 16.7455 103.139 14.3788 104.654C12.0121 106.169 9.78748 106.926 7.70481 106.926Z" fill="white"/>
<path d="M313.147 106.784C309.739 106.784 307.089 105.317 305.195 102.382C303.302 99.4472 302.355 95.1399 302.355 89.4599C302.355 84.0639 303.113 78.6679 304.627 73.2719C306.142 67.7812 308.225 62.5746 310.875 57.6519C313.526 52.7292 316.508 48.3746 319.821 44.5879C323.229 40.8012 326.779 37.8192 330.471 35.6419C334.258 33.3699 337.997 32.2339 341.689 32.2339C343.488 32.2339 345.192 32.6126 346.801 33.3699C348.411 34.0326 349.736 35.1212 350.777 36.6359C351.345 37.4879 351.913 37.9139 352.481 37.9139C353.049 37.9139 353.617 37.4879 354.185 36.6359C355.227 35.1212 356.079 34.1746 356.741 33.7959C357.404 33.3226 358.019 33.0859 358.587 33.0859C359.818 33.0859 360.291 33.7485 360.007 35.0739L347.369 89.4599C345.949 95.6132 346.896 98.6899 350.209 98.6899C352.387 98.6899 354.327 97.2226 356.031 94.2879C357.83 91.3532 359.629 86.8092 361.427 80.6559C361.711 79.6146 362.327 79.0939 363.273 79.0939C363.936 79.0939 364.362 79.3779 364.551 79.9459C364.741 80.5139 364.741 81.1766 364.551 81.9339C362.753 90.8326 360.339 97.2226 357.309 101.104C354.28 104.891 350.635 106.784 346.375 106.784C342.683 106.784 340.033 105.222 338.423 102.098C336.909 98.9739 336.767 94.7139 337.997 89.3179L339.843 81.5079C340.033 80.8452 339.891 80.4666 339.417 80.3719C339.039 80.2772 338.707 80.5139 338.423 81.0819C333.217 90.6432 328.578 97.3172 324.507 101.104C320.531 104.891 316.745 106.784 313.147 106.784ZM316.697 99.5419C318.969 99.5419 321.478 98.1692 324.223 95.4239C326.969 92.6786 329.667 89.1286 332.317 84.7739C335.063 80.4192 337.571 75.7332 339.843 70.7159C342.115 65.6986 343.914 60.8706 345.239 56.2319C346.659 51.5932 347.369 47.6646 347.369 44.4459C347.369 38.6712 345.334 35.7839 341.263 35.7839C338.802 35.7839 336.199 36.9199 333.453 39.1919C330.708 41.3692 328.057 44.3512 325.501 48.1379C323.04 51.9246 320.768 56.2319 318.685 61.0599C316.697 65.7932 315.088 70.7632 313.857 75.9699C312.627 81.0819 312.011 86.0992 312.011 91.0219C312.011 94.3352 312.39 96.6072 313.147 97.8379C313.999 98.9739 315.183 99.5419 316.697 99.5419Z" fill="white"/>
<path d="M259.814 105.506C258.489 105.506 257.968 104.891 258.252 103.66L271.742 47.0019C272.215 44.9192 272.263 43.3099 271.884 42.1739C271.6 40.9432 270.748 40.3279 269.328 40.3279C267.624 40.3279 265.731 41.6059 263.648 44.1619C261.66 46.6232 259.388 51.3566 256.832 58.3619C256.453 59.5926 255.791 60.2079 254.844 60.2079C253.424 60.2079 253.045 59.3559 253.708 57.6519C255.791 51.1199 257.968 46.0079 260.24 42.3159C262.607 38.6239 264.973 36.0206 267.34 34.5059C269.707 32.9912 271.884 32.2339 273.872 32.2339C276.996 32.2339 279.221 33.4172 280.546 35.7839C281.871 38.0559 281.919 41.8426 280.688 47.1439L279.126 53.8179C279.031 54.4806 279.173 54.8592 279.552 54.9539C279.931 55.0486 280.262 54.8119 280.546 54.2439C284.143 46.0079 287.409 40.2806 290.344 37.0619C293.279 33.8432 296.639 32.2339 300.426 32.2339C302.982 32.2339 304.875 32.9439 306.106 34.3639C307.431 35.6892 308.094 37.5352 308.094 39.9019C308.094 42.2686 307.526 44.1619 306.39 45.5819C305.254 47.0019 303.787 47.7119 301.988 47.7119C300.473 47.7119 299.385 47.3332 298.722 46.5759C298.059 45.8186 297.539 44.9666 297.16 44.0199C296.876 42.9785 296.545 42.0792 296.166 41.3219C295.787 40.5646 295.172 40.1859 294.32 40.1859C292.9 40.1859 291.054 41.9846 288.782 45.5819C286.51 49.1792 284.049 54.0546 281.398 60.2079C278.842 66.2666 276.333 73.0826 273.872 80.6559C271.505 88.2292 269.423 95.9919 267.624 103.944C267.34 104.985 266.677 105.506 265.636 105.506H259.814Z" fill="white"/>
<path d="M196.108 106.784C192.7 106.784 190.05 105.317 188.156 102.382C186.263 99.4472 185.316 95.1399 185.316 89.4599C185.316 84.0639 186.073 78.6679 187.588 73.2719C189.103 67.7812 191.185 62.5746 193.836 57.6519C196.487 52.7292 199.469 48.3746 202.782 44.5879C206.19 40.8012 209.74 37.8192 213.432 35.6419C217.219 33.3699 220.958 32.2339 224.65 32.2339C226.449 32.2339 228.153 32.6126 229.762 33.3699C231.372 34.0326 232.697 35.1212 233.738 36.6359C234.306 37.4879 234.874 37.9139 235.442 37.9139C236.01 37.9139 236.578 37.4879 237.146 36.6359C238.188 35.1212 239.04 34.1746 239.702 33.7959C240.365 33.3226 240.98 33.0859 241.548 33.0859C242.779 33.0859 243.252 33.7485 242.968 35.0739L230.33 89.4599C228.91 95.6132 229.857 98.6899 233.17 98.6899C235.347 98.6899 237.288 97.2226 238.992 94.2879C240.791 91.3532 242.59 86.8092 244.388 80.6559C244.672 79.6146 245.288 79.0939 246.234 79.0939C246.897 79.0939 247.323 79.3779 247.512 79.9459C247.702 80.5139 247.702 81.1766 247.512 81.9339C245.714 90.8326 243.3 97.2226 240.27 101.104C237.241 104.891 233.596 106.784 229.336 106.784C225.644 106.784 222.994 105.222 221.384 102.098C219.87 98.9739 219.728 94.7139 220.958 89.3179L222.804 81.5079C222.994 80.8452 222.852 80.4666 222.378 80.3719C222 80.2772 221.668 80.5139 221.384 81.0819C216.178 90.6432 211.539 97.3172 207.468 101.104C203.492 104.891 199.706 106.784 196.108 106.784ZM199.658 99.5419C201.93 99.5419 204.439 98.1692 207.184 95.4239C209.93 92.6786 212.628 89.1286 215.278 84.7739C218.024 80.4192 220.532 75.7332 222.804 70.7159C225.076 65.6986 226.875 60.8706 228.2 56.2319C229.62 51.5932 230.33 47.6646 230.33 44.4459C230.33 38.6712 228.295 35.7839 224.224 35.7839C221.763 35.7839 219.16 36.9199 216.414 39.1919C213.669 41.3692 211.018 44.3512 208.462 48.1379C206.001 51.9246 203.729 56.2319 201.646 61.0599C199.658 65.7932 198.049 70.7632 196.818 75.9699C195.588 81.0819 194.972 86.0992 194.972 91.0219C194.972 94.3352 195.351 96.6072 196.108 97.8379C196.96 98.9739 198.144 99.5419 199.658 99.5419Z" fill="white"/>
<path d="M116.945 103.66L130.435 47.0019C130.909 44.9192 130.956 43.3099 130.577 42.1739C130.293 40.9432 129.441 40.3279 128.021 40.3279C126.317 40.3279 124.424 41.6059 122.341 44.1619C120.353 46.6232 118.081 51.3566 115.525 58.3619C115.147 59.5926 114.484 60.2079 113.537 60.2079C112.117 60.2079 111.739 59.3559 112.401 57.6519C114.484 51.1199 116.661 46.0079 118.933 42.3159C121.3 38.6239 123.667 36.0206 126.033 34.5059C128.4 32.9912 130.577 32.2339 132.565 32.2339C135.689 32.2339 137.914 33.4172 139.239 35.7839C140.565 38.0559 140.612 41.8426 139.381 47.1439L135.831 62.4799C135.737 63.1426 135.879 63.5212 136.257 63.6159C136.636 63.7106 136.967 63.4739 137.251 62.9059C140.943 55.2379 144.493 49.1792 147.901 44.7299C151.309 40.1859 154.528 36.9672 157.557 35.0739C160.587 33.1805 163.332 32.2339 165.793 32.2339C169.296 32.2339 171.852 33.6539 173.461 36.4939C175.071 39.3339 175.071 43.6886 173.461 49.5579L162.669 90.7379C162.007 93.3886 161.959 95.3766 162.527 96.7019C163.095 98.0272 164.137 98.6899 165.651 98.6899C167.545 98.6899 169.391 97.4592 171.189 94.9979C173.083 92.4419 175.023 87.6612 177.011 80.6559C177.295 79.6146 177.911 79.0939 178.857 79.0939C179.615 79.0939 180.041 79.3779 180.135 79.9459C180.325 80.5139 180.325 81.1766 180.135 81.9339C178.337 88.3712 176.396 93.4359 174.313 97.1279C172.231 100.725 170.101 103.234 167.923 104.654C165.841 106.074 163.711 106.784 161.533 106.784C158.125 106.784 155.569 105.364 153.865 102.524C152.161 99.6839 152.067 95.2819 153.581 89.3179L164.515 48.1379C165.557 44.4459 165.699 41.8899 164.941 40.4699C164.279 39.0499 163.285 38.3399 161.959 38.3399C159.877 38.3399 157.51 39.6652 154.859 42.3159C152.209 44.8719 149.511 48.4219 146.765 52.9659C144.02 57.4152 141.322 62.4799 138.671 68.1599C136.021 73.8399 133.607 79.7566 131.429 85.9099C129.347 92.0632 127.643 98.0746 126.317 103.944C126.033 104.985 125.371 105.506 124.329 105.506H118.507C117.182 105.506 116.661 104.891 116.945 103.66Z" fill="white"/>
<path d="M53.64 106.784C50.1374 106.784 47.7234 105.222 46.398 102.098C45.1674 98.8792 45.262 94.6666 46.682 89.4599L57.9 48.2799C58.6574 45.5346 58.8467 43.4046 58.468 41.8899C58.0894 40.3752 57.2374 39.6179 55.912 39.6179C53.7347 39.6179 51.51 41.2746 49.238 44.5879C47.0607 47.9012 45.1674 52.4926 43.558 58.3619C43.274 59.4032 42.6587 59.9239 41.712 59.9239C40.3867 59.9239 39.9607 58.9772 40.434 57.0839C42.6114 49.1319 45.4514 43.0259 48.954 38.7659C52.5514 34.4112 56.48 32.2339 60.74 32.2339C64.148 32.2339 66.42 33.7959 67.556 36.9199C68.692 40.0439 68.5027 44.3039 66.988 49.6999L55.628 90.8799C53.8294 97.4119 54.4447 100.678 57.474 100.678C59.3674 100.678 61.5447 99.3999 64.006 96.8439C66.4674 94.2879 69.0234 90.7852 71.674 86.3359C74.4194 81.8866 77.1174 76.8219 79.768 71.1419C82.4187 65.4619 84.8327 59.4979 87.01 53.2499C89.1874 47.0019 90.986 40.8012 92.406 34.6479C92.69 33.6066 93.3527 33.0859 94.394 33.0859H100.074C101.399 33.0859 101.92 33.7012 101.636 34.9319L88.288 92.0159C87.2467 96.4652 88.0514 98.6899 90.702 98.6899C94.678 98.6899 98.8434 92.6786 103.198 80.6559C103.577 79.4252 104.239 78.8099 105.186 78.8099C105.754 78.8099 106.133 79.0466 106.322 79.5199C106.606 79.9932 106.606 80.6086 106.322 81.3659C103.766 89.4126 100.737 95.6606 97.234 100.11C93.7314 104.559 90.0394 106.784 86.158 106.784C79.342 106.784 77.07 101.814 79.342 91.8739L83.034 76.1119C83.2234 75.4492 83.0814 75.0706 82.608 74.9759C82.2294 74.8812 81.898 75.1179 81.614 75.6859C76.1234 87.0459 71.0587 95.0925 66.42 99.8259C61.7814 104.465 57.5214 106.784 53.64 106.784Z" fill="white"/>
<path d="M13.7048 106.926C10.5808 106.926 8.35615 105.79 7.03081 103.518C5.70548 101.151 5.65815 97.3173 6.88881 92.016L24.9228 14.626C25.3962 12.922 25.3962 11.7387 24.9228 11.076C24.5441 10.4133 23.6921 10.0347 22.3668 9.94L18.1068 9.514C16.6868 9.41933 16.0715 8.804 16.2608 7.668C16.4501 6.816 17.1128 6.29534 18.2488 6.106C21.6568 5.538 24.6861 4.87533 27.3368 4.118C29.9875 3.266 32.1175 2.17733 33.7268 0.851997C34.4841 0.283999 35.1941 0 35.8568 0C36.9928 0 37.4188 0.709999 37.1348 2.13L16.1188 92.158C15.6455 94.2407 15.5508 95.8973 15.8348 97.128C16.2135 98.264 17.1128 98.832 18.5328 98.832C20.2368 98.832 22.0828 97.6013 24.0708 95.14C26.1535 92.584 28.4728 87.8033 31.0288 80.798C31.4075 79.5673 32.0701 78.952 33.0168 78.952C34.4368 78.952 34.8155 79.804 34.1528 81.508C32.1648 87.9453 29.9402 93.0573 27.4788 96.844C25.1122 100.536 22.7455 103.139 20.3788 104.654C18.0121 106.169 15.7875 106.926 13.7048 106.926Z" fill="white"/>
</svg>
