<svg xmlns="http://www.w3.org/2000/svg" version="1.1" xmlns:xlink="http://www.w3.org/1999/xlink" width="785" height="785"><svg width="785" height="785" viewBox="0 0 785 785" fill="none" xmlns="http://www.w3.org/2000/svg">
<rect width="784.297" height="784.297" fill="#0A0A0A"></rect>
<path d="M336.781 656.486C321.468 656.486 310.563 650.918 304.066 639.781C297.569 628.179 297.337 609.386 303.37 583.399L391.77 204.045C394.09 195.692 394.09 189.891 391.77 186.643C389.914 183.395 385.738 181.539 379.241 181.075L358.359 178.986C351.398 178.522 348.382 175.506 349.31 169.938C350.238 165.761 353.487 163.209 359.055 162.281C375.761 159.497 390.61 156.248 403.603 152.536C416.596 148.36 427.037 143.023 434.926 136.526C438.638 133.742 442.119 132.35 445.367 132.35C450.936 132.35 453.024 135.83 451.632 142.791L348.614 584.095C346.294 594.304 345.83 602.425 347.222 608.458C349.078 614.026 353.487 616.81 360.447 616.81C368.8 616.81 377.849 610.778 387.594 598.713C397.803 586.184 409.172 562.749 421.701 528.41C423.557 522.378 426.805 519.362 431.446 519.362C438.406 519.362 440.263 523.538 437.014 531.891C427.269 563.446 416.364 588.504 404.299 607.066C392.698 625.163 381.097 637.924 369.496 645.349C357.895 652.774 346.99 656.486 336.781 656.486Z" fill="#E85EA9"></path>
<path d="M366.192 656.486C350.879 656.486 339.974 650.918 333.477 639.781C326.981 628.179 326.749 609.386 332.781 583.399L421.181 204.045C423.501 195.692 423.501 189.891 421.181 186.643C419.325 183.395 415.149 181.539 408.652 181.075L387.77 178.986C380.81 178.522 377.793 175.506 378.721 169.938C379.649 165.761 382.898 163.209 388.466 162.281C405.172 159.497 420.021 156.248 433.014 152.536C446.008 148.36 456.448 143.023 464.337 136.526C468.05 133.742 471.53 132.35 474.778 132.35C480.347 132.35 482.435 135.83 481.043 142.791L378.025 584.095C375.705 594.304 375.241 602.425 376.633 608.458C378.489 614.026 382.898 616.81 389.858 616.81C398.211 616.81 407.26 610.778 417.005 598.713C427.214 586.184 438.583 562.749 451.112 528.41C452.968 522.378 456.216 519.362 460.857 519.362C467.818 519.362 469.674 523.538 466.425 531.891C456.681 563.446 445.776 588.504 433.71 607.066C422.109 625.163 410.508 637.924 398.907 645.349C387.306 652.774 376.401 656.486 366.192 656.486Z" fill="#E85EA9"></path>
</svg><style>@media (prefers-color-scheme: light) { :root { filter: none; } }
@media (prefers-color-scheme: dark) { :root { filter: none; } }
</style></svg>